<svg width="181" height="60" viewBox="0 0 181 60" fill="none" xmlns="http://www.w3.org/2000/svg">
<g clip-path="url(#clip0_12_4)">
<path d="M47.9503 45.7046C45.7179 48.0146 42.7767 49.2146 39.8354 49.2146V41.2796C40.7857 41.2796 41.8114 40.8896 42.5203 40.0946C43.2895 39.2996 43.6666 38.3096 43.6666 37.3196C43.6666 36.3296 43.2895 35.2646 42.5203 34.5446L20.1064 11.3096V0.0595703L47.9352 28.9046C52.3999 33.5396 52.3999 41.0696 47.9352 45.7046H47.9503Z" fill="#EA543F"/>
<path d="M39.8351 41.28H28.9902L10.9203 60H0.0603333L23.5602 35.655L0 11.175V0L39.8351 41.28Z" fill="#EA543F"/>
<path d="M57.905 60.0004H36.6526L28.9902 52.0654H50.2427L57.905 60.0004Z" fill="#EA543F"/>
<path d="M83.6222 38.5498C90.2739 38.5498 94.6481 42.7948 94.6481 49.0198C94.6481 55.2448 90.2739 59.4898 83.6222 59.4898H75.8694C75.7638 59.4898 75.6582 59.3698 75.6582 59.2648V38.8498C75.6582 38.7298 75.7638 38.6248 75.8694 38.6248H83.6222V38.5648V38.5498ZM83.4563 55.0048C87.2271 55.0048 89.6857 52.6348 89.6857 49.0048C89.6857 45.3748 87.2271 43.0048 83.4563 43.0048H80.8318C80.7262 43.0048 80.6206 43.1248 80.6206 43.2298V54.7648C80.6206 54.8848 80.7262 54.9898 80.8318 54.9898H83.4563V55.0048Z" fill="#122341"/>
<path d="M96.3975 59.2504V38.8354C96.3975 38.7154 96.503 38.6104 96.6086 38.6104H101.134C101.239 38.6104 101.345 38.7304 101.345 38.8354V59.2504C101.345 59.3703 101.239 59.4754 101.134 59.4754H96.6086C96.4427 59.4754 96.3975 59.3554 96.3975 59.2504Z" fill="#122341"/>
<path d="M117.032 59.3704L111.089 52.3504C111.089 52.3504 110.983 52.2904 110.923 52.2904H109.777C109.671 52.2904 109.565 52.4103 109.565 52.5153V59.2504C109.565 59.3703 109.46 59.4754 109.354 59.4754H104.829C104.724 59.4754 104.618 59.3554 104.618 59.2504V38.8354C104.618 38.7154 104.724 38.6104 104.829 38.6104H114.814C119.174 38.6104 122.07 41.3854 122.07 45.4504C122.07 48.7353 120.154 51.1653 117.107 52.0053C116.941 52.0653 116.896 52.2304 117.002 52.3504L122.794 59.1303C122.899 59.2953 122.794 59.5204 122.628 59.5204H117.228L117.062 59.3554L117.032 59.3704ZM114.302 48.0004C116.097 48.0004 117.198 46.9804 117.198 45.4504C117.198 43.9204 116.051 42.9604 114.302 42.9604H109.822C109.716 42.9604 109.611 43.0804 109.611 43.1854V47.7604C109.611 47.8804 109.716 47.9854 109.822 47.9854H114.302V48.0004Z" fill="#122341"/>
<path d="M140.214 59.4754H124.935C124.829 59.4754 124.724 59.3554 124.724 59.2504V38.8354C124.724 38.7154 124.829 38.6104 124.935 38.6104H140.109C140.214 38.6104 140.32 38.7304 140.32 38.8354V42.7954C140.32 42.9154 140.214 43.0204 140.109 43.0204H129.897C129.792 43.0204 129.686 43.1404 129.686 43.2454V46.6953C129.686 46.8153 129.792 46.9204 129.897 46.9204H139.234C139.339 46.9204 139.445 47.0404 139.445 47.1454V50.8803C139.445 51.0003 139.339 51.1054 139.234 51.1054H129.897C129.792 51.1054 129.686 51.2254 129.686 51.3304V54.7804C129.686 54.9004 129.792 55.0053 129.897 55.0053H140.214C140.32 55.0053 140.425 55.1254 140.425 55.2304V59.1903C140.425 59.3553 140.32 59.4754 140.214 59.4754Z" fill="#122341"/>
<path d="M162.764 51.555C162.87 51.555 162.975 51.72 162.93 51.84C161.95 56.925 157.907 59.925 152.779 59.925C146.776 59.925 142.085 55.17 142.085 49.005C142.085 42.84 146.836 38.085 152.779 38.085C157.696 38.085 161.844 41.025 162.87 45.885C162.87 46.005 162.809 46.11 162.704 46.17L158.224 47.25C158.119 47.25 158.013 47.19 157.953 47.085C157.244 44.205 155.283 42.78 152.719 42.78C149.551 42.78 146.987 45.435 146.987 49.005C146.987 52.575 149.551 55.23 152.719 55.23C155.238 55.23 157.244 53.82 157.953 50.82C158.013 50.7 158.119 50.655 158.224 50.655L162.749 51.555H162.764Z" fill="#122341"/>
<path d="M174.454 43.3054V59.2504C174.454 59.3703 174.349 59.4754 174.243 59.4754H169.763C169.658 59.4754 169.552 59.3554 169.552 59.2504V43.3054C169.552 43.1854 169.446 43.0804 169.326 43.0804H163.217C163.111 43.0804 163.006 42.9604 163.006 42.8554V38.8354C163.006 38.7154 163.111 38.6104 163.217 38.6104H180.789C180.895 38.6104 181 38.7304 181 38.8354V42.8554C181 42.9754 180.895 43.0804 180.789 43.0804H174.68C174.514 43.0804 174.454 43.1404 174.454 43.3054Z" fill="#122341"/>
<path d="M88.1017 31.305L82.0986 24.24C82.0986 24.24 81.993 24.18 81.9327 24.18H80.7863C80.6807 24.18 80.5752 24.3 80.5752 24.405V31.305C80.5752 31.305 80.5752 31.365 80.5148 31.365H75.658C75.658 31.365 75.5977 31.365 75.5977 31.305V10.725C75.5977 10.605 75.7032 10.5 75.8088 10.5H85.794C90.1682 10.5 93.0491 13.275 93.0491 17.34C93.0491 20.625 91.1335 23.055 88.0867 23.895C87.9207 23.955 87.8755 24.12 87.9811 24.24L93.9842 31.305C93.9842 31.305 93.9842 31.425 93.9239 31.425L88.0867 31.305H88.1017ZM85.3113 19.83C87.1062 19.83 88.2073 18.81 88.2073 17.28C88.2073 15.75 87.061 14.79 85.3113 14.79H80.8316C80.726 14.79 80.6204 14.91 80.6204 15.015V19.59C80.6204 19.71 80.726 19.815 80.8316 19.815H85.3113V19.83Z" fill="#122341"/>
<path d="M137.832 31.2604V10.6654C137.832 10.5454 137.938 10.4404 138.043 10.4404H142.568C142.674 10.4404 142.779 10.5604 142.779 10.6654V31.2604C142.779 31.2604 142.779 31.3204 142.719 31.3204H137.862C137.862 31.3204 137.802 31.3204 137.802 31.2604H137.832Z" fill="#122341"/>
<path d="M154.031 10.4404C160.698 10.4404 165.057 14.6854 165.057 20.9104C165.057 27.1354 160.698 31.3804 154.031 31.3804H146.112C146.112 31.3804 146.052 31.3804 146.052 31.3204V10.7254C146.052 10.6054 146.157 10.5004 146.263 10.5004H154.016V10.4404H154.031ZM153.865 26.8504C157.636 26.8504 160.079 24.4804 160.079 20.8504C160.079 17.2204 157.621 14.8504 153.865 14.8504H151.24C151.135 14.8504 151.029 14.9704 151.029 15.0754V26.6104C151.029 26.7304 151.135 26.8354 151.24 26.8354H153.865V26.8504Z" fill="#122341"/>
<path d="M107.484 10.4404H96.5635C96.4579 10.4404 96.3523 10.5604 96.3523 10.6654V15.3604C96.3523 15.4804 96.4579 15.5854 96.5635 15.5854H100.108C100.274 15.5854 100.38 15.7504 100.319 15.9304L94.0898 31.3204C94.0898 31.3204 94.0898 31.3804 94.1502 31.3804H99.3388C99.3388 31.3804 99.3992 31.3804 99.3992 31.3204L100.757 27.7054C100.817 27.5854 100.862 27.5404 100.968 27.5404H109.158C109.264 27.5404 109.324 27.6004 109.369 27.7054L110.727 31.3204L110.787 31.3804H115.976L116.036 31.3204L107.68 10.6204C107.62 10.5004 107.574 10.4554 107.469 10.4554L107.484 10.4404ZM102.672 22.7704L104.905 16.7704C104.965 16.6054 105.236 16.6054 105.282 16.7704L107.574 22.7704C107.635 22.9354 107.514 23.0554 107.363 23.0554H102.838C102.733 23.0554 102.627 22.9354 102.672 22.7704Z" fill="#122341"/>
<path d="M127.62 10.4404C132.145 10.4404 135.041 13.3204 135.041 17.6254C135.041 21.9304 132.099 24.9154 127.393 24.9154H122.868C122.763 24.9154 122.657 25.0354 122.657 25.1404V31.0804C122.657 31.2004 122.552 31.3054 122.446 31.3054H117.921C117.816 31.3054 117.71 31.1854 117.71 31.0804V10.6654C117.71 10.5454 117.816 10.4404 117.921 10.4404H127.635H127.62ZM127.077 20.6254C128.992 20.6254 130.184 19.5004 130.184 17.6854C130.184 15.9904 128.977 14.8054 127.077 14.8054H122.868C122.763 14.8054 122.657 14.9254 122.657 15.0304V20.4004C122.657 20.5204 122.763 20.6254 122.868 20.6254H127.077Z" fill="#122341"/>
</g>
<defs>
<clipPath id="clip0_12_4">
<rect width="181" height="60" fill="white"/>
</clipPath>
</defs>
</svg>
